<svg xmlns="http://www.w3.org/2000/svg" width="400" height="300" viewBox="0 0 400 300"><rect width="100%" height="100%" fill="#DDDDDD"/><path fill="#999999" d="M92.975 151.555h12.88l-4.93-13.47q-.37-.89-.76-2.12-.39-1.24-.78-2.66-.37 1.42-.76 2.67t-.75 2.17zm10.27-25.2 15.91 40.49h-5.83q-.98 0-1.59-.49-.62-.49-.93-1.22l-3.02-8.26h-16.77l-3.03 8.26q-.22.65-.87 1.18-.64.53-1.59.53h-5.88l15.93-40.49zm25.01 13.02.47 2.27q.87-.87 1.84-1.61.96-.74 2.04-1.26t2.31-.81q1.23-.3 2.69-.3 2.35 0 4.17.8t3.04 2.24 1.85 3.45q.63 2 .63 4.41v18.28h-6.92v-18.28q0-2.64-1.2-4.08-1.21-1.44-3.67-1.44-1.79 0-3.36.81t-2.97 2.21v20.78h-6.92v-28.73h4.23q1.35 0 1.77 1.26m35.16 27.92q-3.75 0-5.75-2.12-2-2.11-2-5.83v-16.05h-2.94q-.56 0-.95-.36-.4-.37-.4-1.09v-2.75l4.62-.75 1.46-7.84q.14-.56.53-.87t1.01-.31h3.58v9.04h7.68v4.93h-7.68v15.57q0 1.34.66 2.1t1.81.76q.64 0 1.08-.16.43-.15.75-.32t.58-.32q.25-.16.5-.16.31 0 .5.16.2.15.42.46l2.08 3.36q-1.52 1.26-3.48 1.9-1.96.65-4.06.65m18.18-42.06v15.96q1.68-1.57 3.69-2.55 2.02-.98 4.73-.98 2.36 0 4.18.8t3.03 2.24q1.22 1.44 1.85 3.45.63 2 .63 4.41v18.28h-6.91v-18.28q0-2.64-1.21-4.08-1.2-1.44-3.67-1.44-1.79 0-3.36.81-1.56.81-2.96 2.21v20.78h-6.92v-41.61zm24.89 12.88h6.94v28.73h-6.94zm7.89-8.37q0 .9-.36 1.68t-.97 1.37q-.6.59-1.41.94t-1.74.35q-.89 0-1.69-.35t-1.39-.94q-.58-.59-.93-1.37t-.35-1.68q0-.92.35-1.74.35-.81.93-1.4.59-.58 1.39-.93t1.69-.35q.93 0 1.74.35t1.41.93q.61.59.97 1.4.36.82.36 1.74m6.19-4.51h6.92v41.61h-6.92zm13.92 0h6.91v41.61h-6.91zm36.09 1.12v40.49h-7.56v-40.49zm14.36 20.25q0 3.33.9 5.97.9 2.65 2.56 4.48 1.67 1.84 4.03 2.82 2.37.98 5.34.98t5.33-.98q2.37-.98 4.02-2.82 1.65-1.83 2.55-4.48.89-2.64.89-5.97 0-3.34-.89-5.98-.9-2.65-2.55-4.5-1.65-1.84-4.02-2.82-2.36-.98-5.33-.98t-5.34.98q-2.36.98-4.03 2.82-1.66 1.85-2.56 4.5-.9 2.64-.9 5.98m25.15 16.96 10.27 11.2h-6.21q-1.35 0-2.42-.36-1.08-.36-1.98-1.34l-5.93-6.56q-1.43.4-2.93.59-1.5.2-3.12.2-4.59 0-8.37-1.56-3.78-1.55-6.49-4.32-2.7-2.77-4.18-6.57-1.49-3.79-1.49-8.24 0-4.46 1.49-8.25 1.48-3.79 4.18-6.57 2.71-2.77 6.49-4.32 3.78-1.56 8.37-1.56 3.08 0 5.79.72 2.72.71 4.99 2.01 2.27 1.31 4.07 3.17 1.81 1.86 3.07 4.16 1.26 2.29 1.92 4.98.65 2.69.65 5.66 0 2.71-.56 5.19t-1.61 4.63q-1.05 2.16-2.56 3.97-1.51 1.8-3.44 3.17"/></svg>