<svg xmlns="http://www.w3.org/2000/svg" width="400" height="300" viewBox="0 0 400 300"><rect width="100%" height="100%" fill="#DDDDDD"/><path fill="#999999" d="M102.165 149.86q0 2.86-.95 5.25-.96 2.4-2.68 4.12-1.73 1.73-4.16 2.69-2.43.95-5.4.95h-9.92v-26.03h9.92q2.97 0 5.4.96 2.43.97 4.16 2.69 1.72 1.72 2.68 4.11.95 2.39.95 5.26m-4.97 0q0-2.15-.56-3.85-.57-1.7-1.64-2.88t-2.59-1.81-3.43-.63h-5.06v18.33h5.06q1.91 0 3.43-.63t2.59-1.81 1.64-2.88q.56-1.7.56-3.84m16.71-5.75q2.05 0 3.73.67 1.69.67 2.88 1.89 1.2 1.22 1.85 2.99.65 1.76.65 3.94 0 2.2-.65 3.96t-1.85 3.01q-1.19 1.24-2.88 1.9-1.68.67-3.73.67-2.07 0-3.76-.67-1.7-.66-2.89-1.9-1.2-1.25-1.86-3.01-.65-1.76-.65-3.96 0-2.18.65-3.94.66-1.77 1.86-2.99 1.19-1.22 2.89-1.89 1.69-.67 3.76-.67m0 15.61q2.3 0 3.41-1.55t1.11-4.53q0-2.99-1.11-4.56-1.11-1.56-3.41-1.56-2.34 0-3.47 1.57-1.12 1.58-1.12 4.55t1.12 4.52q1.13 1.56 3.47 1.56m26.91-13.03-1.17 1.62q-.2.25-.39.39-.19.15-.55.15-.34 0-.66-.21-.33-.21-.78-.47t-1.07-.47q-.62-.2-1.54-.2-1.17 0-2.05.42t-1.47 1.22q-.58.79-.87 1.91-.29 1.13-.29 2.55 0 1.48.32 2.63.31 1.15.91 1.93.59.79 1.44 1.19.84.41 1.9.41 1.07 0 1.72-.27.66-.26 1.11-.57.45-.32.78-.58.34-.26.75-.26.54 0 .81.42l1.28 1.62q-.74.86-1.6 1.44-.87.59-1.79.94-.93.35-1.91.5-.98.14-1.96.14-1.71 0-3.22-.64t-2.64-1.86q-1.14-1.23-1.79-3-.66-1.77-.66-4.04 0-2.03.58-3.77.59-1.74 1.72-3.01 1.14-1.27 2.81-1.99t3.85-.72q2.07 0 3.63.67t2.8 1.91m9.11 16.47q-2.42 0-3.7-1.36-1.29-1.36-1.29-3.75v-10.32h-1.89q-.36 0-.61-.23-.25-.24-.25-.7v-1.77l2.97-.48.93-5.04q.09-.36.34-.56.26-.2.65-.2h2.31v5.81h4.93v3.17h-4.93v10.01q0 .86.42 1.35t1.16.49q.41 0 .69-.1t.49-.21.37-.21.32-.1q.2 0 .33.1.12.1.27.3l1.33 2.16q-.97.81-2.23 1.22-1.26.42-2.61.42m15.4-19.05q2.06 0 3.74.67t2.88 1.89 1.84 2.99q.65 1.76.65 3.94 0 2.2-.65 3.96-.64 1.76-1.84 3.01-1.2 1.24-2.88 1.9-1.68.67-3.74.67-2.07 0-3.76-.67-1.69-.66-2.89-1.9-1.19-1.25-1.85-3.01t-.66-3.96q0-2.18.66-3.94.66-1.77 1.85-2.99 1.2-1.22 2.89-1.89t3.76-.67m0 15.61q2.31 0 3.42-1.55 1.1-1.55 1.1-4.53 0-2.99-1.1-4.56-1.11-1.56-3.42-1.56-2.34 0-3.46 1.57-1.13 1.58-1.13 4.55t1.13 4.52q1.12 1.56 3.46 1.56m16.44-14.2.27 2.09q.86-1.66 2.05-2.61 1.19-.94 2.81-.94 1.28 0 2.05.56l-.29 3.33q-.09.32-.26.46-.17.13-.46.13-.27 0-.8-.09t-1.03-.09q-.74 0-1.32.22-.57.21-1.03.62-.46.4-.81.98t-.66 1.31v11.38h-4.45V144.4h2.61q.69 0 .96.24.27.25.36.88m42.07 4.34q0 2.86-.96 5.25-.95 2.4-2.68 4.12-1.73 1.73-4.16 2.69-2.43.95-5.4.95h-9.92v-26.03h9.92q2.97 0 5.4.96 2.43.97 4.16 2.69t2.68 4.11q.96 2.39.96 5.26m-4.97 0q0-2.15-.57-3.85t-1.64-2.88-2.59-1.81-3.43-.63h-5.06v18.33h5.06q1.91 0 3.43-.63t2.59-1.81 1.64-2.88.57-3.84m12.45-4.34.27 2.09q.87-1.66 2.06-2.61 1.18-.94 2.8-.94 1.28 0 2.06.56l-.29 3.33q-.09.32-.26.46-.17.13-.46.13-.27 0-.8-.09t-1.04-.09q-.74 0-1.31.22-.58.21-1.04.62-.46.4-.81.98t-.65 1.31v11.38h-4.45V144.4h2.61q.68 0 .95.24.27.25.36.88m13.02 5.99h8.39q0-.86-.25-1.63-.24-.76-.73-1.34-.48-.57-1.23-.91-.75-.33-1.74-.33-1.92 0-3.03 1.1t-1.41 3.11m11.34 2.68h-11.43q.11 1.43.5 2.46.4 1.04 1.05 1.71.64.68 1.53 1.01.9.33 1.98.33t1.86-.25 1.37-.56q.58-.3 1.02-.56.44-.25.86-.25.56 0 .83.42l1.27 1.62q-.73.86-1.65 1.44-.92.59-1.92.94t-2.03.5q-1.04.14-2.01.14-1.93 0-3.58-.64-1.66-.64-2.88-1.89-1.23-1.25-1.93-3.1-.7-1.84-.7-4.27 0-1.89.61-3.56.61-1.66 1.76-2.89 1.14-1.24 2.79-1.96 1.64-.72 3.71-.72 1.75 0 3.23.56 1.47.56 2.53 1.63 1.07 1.07 1.67 2.63t.6 3.55q0 1.01-.21 1.36-.22.35-.83.35m14.13 3.91v-3.11q-1.93.09-3.24.33-1.32.24-2.11.62t-1.13.88q-.34.51-.34 1.1 0 1.17.69 1.67.69.51 1.81.51 1.37 0 2.36-.5 1-.49 1.96-1.5m-9.4-9.7-.79-1.42q3.19-2.92 7.67-2.92 1.62 0 2.9.53 1.27.53 2.16 1.48.88.94 1.34 2.26.46 1.31.46 2.88v11.66h-2.02q-.63 0-.97-.19t-.54-.76l-.4-1.34q-.7.63-1.37 1.11-.66.48-1.38.8-.72.33-1.54.5t-1.81.17q-1.17 0-2.16-.32-.99-.31-1.71-.94t-1.12-1.57q-.39-.93-.39-2.18 0-.7.23-1.39.24-.69.77-1.32t1.37-1.19q.85-.56 2.08-.97 1.24-.42 2.87-.68 1.64-.26 3.75-.31v-1.08q0-1.86-.79-2.75-.8-.89-2.29-.89-1.08 0-1.79.25t-1.25.57q-.54.31-.98.57-.44.25-.98.25-.47 0-.8-.25-.32-.24-.52-.56m22.36 14.47h-4.45V144.4h2.72q.86 0 1.13.81l.29 1.37q.49-.54 1.02-.99t1.13-.77q.61-.33 1.3-.52t1.52-.19q1.75 0 2.87.95 1.13.94 1.68 2.51.44-.92 1.08-1.58.65-.65 1.43-1.07.77-.41 1.64-.61.88-.2 1.76-.2 1.53 0 2.72.47 1.18.47 1.99 1.37t1.24 2.2q.42 1.29.42 2.97v11.75h-4.45v-11.75q0-1.77-.77-2.66t-2.27-.89q-.68 0-1.27.23-.58.24-1.02.68t-.7 1.11q-.25.66-.25 1.53v11.75h-4.46v-11.75q0-1.86-.75-2.7-.75-.85-2.19-.85-.97 0-1.81.48-.83.47-1.55 1.3zm37.98-16.47-1.01 1.6q-.18.29-.38.41-.2.11-.5.11-.33 0-.7-.18-.36-.18-.85-.4-.49-.23-1.11-.41t-1.46-.18q-1.32 0-2.07.56-.74.56-.74 1.46 0 .59.38 1 .39.4 1.03.71t1.45.55 1.65.53q.83.29 1.64.66t1.45.93q.64.57 1.03 1.36t.39 1.91q0 1.33-.48 2.46-.48 1.12-1.41 1.94-.94.82-2.32 1.28-1.37.46-3.17.46-.96 0-1.87-.17t-1.74-.48q-.84-.31-1.55-.72t-1.25-.9l1.02-1.69q.2-.31.47-.47t.69-.16q.41 0 .78.23.37.24.85.51.49.27 1.15.5.65.23 1.66.23.79 0 1.36-.19.57-.18.94-.49t.54-.71q.17-.41.17-.84 0-.65-.39-1.06t-1.03-.72q-.63-.31-1.45-.55t-1.68-.53q-.85-.29-1.67-.68-.82-.38-1.46-.98-.64-.59-1.03-1.45-.38-.87-.38-2.09 0-1.14.45-2.16.45-1.03 1.32-1.79.87-.77 2.18-1.23 1.3-.46 3.01-.46 1.91 0 3.48.63 1.56.63 2.61 1.66"/></svg>